{
    "asset" : {
        "generator" : "Khronos glTF Blender I/O v1.2.75",
        "version" : "2.0"
    },
    "scene" : 0,
    "scenes" : [
        {
            "name" : "Scene",
            "nodes" : [
                0,
                1,
                2,
                3
            ]
        }
    ],
    "nodes" : [
        {
            "name" : "Light",
            "rotation" : [
                0.16907575726509094,
                0.7558803558349609,
                -0.27217137813568115,
                0.570947527885437
            ],
            "translation" : [
                4.076245307922363,
                5.903861999511719,
                -1.0054539442062378
            ]
        },
        {
            "name" : "Camera",
            "rotation" : [
                0.2361631542444229,
                -0.5749005079269409,
                0.1779618263244629,
                0.7629193663597107
            ],
            "translation" : [
                -1.1392046213150024,
                1.704773187637329,
                0.3079451322555542
            ]
        },
        {
            "name" : "0_curve_.003",
            "translation" : [
                -0.05788464844226837,
                0.012976542115211487,
                0.49164193868637085
            ]
        },
        {
            "mesh" : 0,
            "name" : "Fasad"
        }
    ],
    "materials" : [
        {
            "doubleSided" : true,
            "emissiveFactor" : [
                0,
                0,
                0
            ],
            "name" : "Material.003",
            "pbrMetallicRoughness" : {
                "baseColorTexture" : {
                    "index" : 0,
                    "texCoord" : 0
                },
                "metallicFactor" : 0,
                "roughnessFactor" : 0.5
            }
        }
    ],
    "meshes" : [
        {
            "name" : "Fasad",
            "primitives" : [
                {
                    "attributes" : {
                        "POSITION" : 0,
                        "NORMAL" : 1,
                        "TEXCOORD_0" : 2
                    },
                    "indices" : 3,
                    "material" : 0
                }
            ]
        }
    ],
    "textures" : [
        {
            "source" : 0
        }
    ],
    "images" : [
        {
            "bufferView" : 4,
            "mimeType" : "image/png",
            "name" : "Untitled"
        }
    ],
    "accessors" : [
        {
            "bufferView" : 0,
            "componentType" : 5126,
            "count" : 5904,
            "max" : [
                0.3565000295639038,
                0.00950000062584877,
                0.1980000138282776
            ],
            "min" : [
                -0.3565000295639038,
                -0.00950000062584877,
                -0.1980000138282776
            ],
            "type" : "VEC3"
        },
        {
            "bufferView" : 1,
            "componentType" : 5126,
            "count" : 5904,
            "type" : "VEC3"
        },
        {
            "bufferView" : 2,
            "componentType" : 5126,
            "count" : 5904,
            "type" : "VEC2"
        },
        {
            "bufferView" : 3,
            "componentType" : 5123,
            "count" : 34980,
            "type" : "SCALAR"
        }
    ],
    "bufferViews" : [
        {
            "buffer" : 0,
            "byteLength" : 70848,
            "byteOffset" : 0
        },
        {
            "buffer" : 0,
            "byteLength" : 70848,
            "byteOffset" : 70848
        },
        {
            "buffer" : 0,
            "byteLength" : 47232,
            "byteOffset" : 141696
        },
        {
            "buffer" : 0,
            "byteLength" : 69960,
            "byteOffset" : 188928
        },
        {
            "buffer" : 0,
            "byteLength" : 464849,
            "byteOffset" : 258888
        }
    ],
    "buffers" : [
        {
            "byteLength" : 723740,
            "uri" : "data:application/octet-stream;base64,"
        }
    ]
}
