{
    "asset" : {
        "generator" : "Khronos glTF Blender I/O v1.2.75",
        "version" : "2.0"
    },
    "scene" : 0,
    "scenes" : [
        {
            "name" : "Scene",
            "nodes" : [
                0,
                1,
                2,
                3
            ]
        }
    ],
    "nodes" : [
        {
            "name" : "Camera",
            "rotation" : [
                0.08845139294862747,
                -0.693699836730957,
                0.08125211298465729,
                0.7101795673370361
            ],
            "translation" : [
                -2.8507192134857178,
                26.194377899169922,
                -0.14840126037597656
            ]
        },
        {
            "mesh" : 0,
            "name" : "Cube.001",
            "translation" : [
                4.963952541351318,
                -0.05864954739809036,
                -1.9791473150253296
            ]
        },
        {
            "name" : "0_curve_.002"
        },
        {
            "name" : "Point",
            "rotation" : [
                0.016538487747311592,
                -0.09430339932441711,
                -0.5138320922851562,
                0.8525314927101135
            ],
            "translation" : [
                8.333090782165527,
                4.758698463439941,
                -0.30238068103790283
            ]
        }
    ],
    "materials" : [
        {
            "doubleSided" : true,
            "emissiveFactor" : [
                0,
                0,
                0
            ],
            "name" : "Material.001",
            "pbrMetallicRoughness" : {
                "baseColorTexture" : {
                    "index" : 0,
                    "texCoord" : 0
                },
                "metallicFactor" : 0,
                "roughnessFactor" : 0.5
            }
        }
    ],
    "meshes" : [
        {
            "name" : "Cube.002",
            "primitives" : [
                {
                    "attributes" : {
                        "POSITION" : 0,
                        "NORMAL" : 1,
                        "TEXCOORD_0" : 2
                    },
                    "indices" : 3,
                    "material" : 0
                }
            ]
        }
    ],
    "textures" : [
        {
            "source" : 0
        }
    ],
    "images" : [
        {
            "bufferView" : 4,
            "mimeType" : "image/png",
            "name" : "Untitled"
        }
    ],
    "accessors" : [
        {
            "bufferView" : 0,
            "componentType" : 5126,
            "count" : 608,
            "max" : [
                2.166048049926758,
                0.05864958465099335,
                1.9791473150253296
            ],
            "min" : [
                -4.963952541351318,
                -0.13135045766830444,
                -1.9808529615402222
            ],
            "type" : "VEC3"
        },
        {
            "bufferView" : 1,
            "componentType" : 5126,
            "count" : 608,
            "type" : "VEC3"
        },
        {
            "bufferView" : 2,
            "componentType" : 5126,
            "count" : 608,
            "type" : "VEC2"
        },
        {
            "bufferView" : 3,
            "componentType" : 5123,
            "count" : 3492,
            "type" : "SCALAR"
        }
    ],
    "bufferViews" : [
        {
            "buffer" : 0,
            "byteLength" : 7296,
            "byteOffset" : 0
        },
        {
            "buffer" : 0,
            "byteLength" : 7296,
            "byteOffset" : 7296
        },
        {
            "buffer" : 0,
            "byteLength" : 4864,
            "byteOffset" : 14592
        },
        {
            "buffer" : 0,
            "byteLength" : 6984,
            "byteOffset" : 19456
        },
        {
            "buffer" : 0,
            "byteLength" : 464849,
            "byteOffset" : 26440
        }
    ],
    "buffers" : [
        {
            "byteLength" : 491292,
            "uri" : "data:application/octet-stream;base64,"
        }
    ]
}
